<svg width="300" height="100" viewBox="0 0 300 100" fill="none" xmlns="http://www.w3.org/2000/svg">
<path d="M72.2321 30V70H65V30H72.2321Z" fill="white"/>
<path d="M112.871 30V70H106.438L87.6272 42.7539H87.2958V70H80.0637V30H86.5355L105.327 57.2656H105.678V30H112.871Z" fill="white"/>
<path d="M118.997 36.0742V30H150.85V36.0742H138.51V70H131.337V36.0742H118.997Z" fill="white"/>
<path d="M156.99 70V30H182.956V36.0742H164.222V46.9336H181.611V53.0078H164.222V63.9258H183.112V70H156.99Z" fill="white"/>
<path d="M190.334 70V30H197.566V63.9258H215.149V70H190.334Z" fill="white"/>
<path d="M221.426 70V30H228.658V63.9258H246.242V70H221.426Z" fill="white"/>
<path d="M259.751 30V70H252.519V30H259.751Z" fill="white"/>
<path d="M273.625 30L282.417 44.6484H282.729L291.559 30H299.805L287.505 50L300 70H291.618L282.729 55.4492H282.417L273.528 70H265.184L277.797 50L265.34 30H273.625Z" fill="white"/>
<path d="M40.0475 31.9939C40.6677 32.064 41.4558 32.3651 42.5494 33.4587C43.7274 34.6367 44.2053 35.4942 44.3942 36.1833C44.5789 36.8577 44.5531 37.607 44.2623 38.7195C43.954 39.899 43.4374 41.1934 42.7682 43.0652C42.1208 44.876 41.4 47.0547 40.8024 49.7439C40.2255 52.3401 40.2719 55.167 40.4576 57.8191C40.6562 60.6537 40.9739 62.9688 41.0846 65.3757C41.192 67.7113 41.039 69.4132 40.5201 70.5476C40.2811 71.0701 39.975 71.4456 39.5817 71.7224C39.1807 72.0045 38.5865 72.2564 37.6715 72.3708C36.0858 72.5691 35.0276 71.7698 33.2545 70.116C31.6714 68.6393 29.3879 66.3104 25.8307 66.3103C22.2733 66.3103 19.99 68.6392 18.4069 70.116C16.6337 71.7699 15.5755 72.569 13.9899 72.3708C13.0745 72.2564 12.4798 72.0046 12.0787 71.7224C11.6854 71.4456 11.3793 71.0702 11.1403 70.5476C10.6214 69.4132 10.4694 67.7113 10.5768 65.3757C10.6875 62.9688 11.0052 60.6537 11.2037 57.8191C11.3895 55.167 11.4349 52.3401 10.858 49.7439C10.2604 47.0547 9.53961 44.876 8.89221 43.0652C8.22306 41.1935 7.70734 39.899 7.39905 38.7195C7.10829 37.6069 7.08147 36.8577 7.26624 36.1833C7.4551 35.4942 7.93309 34.6367 9.11096 33.4587C10.2045 32.3652 10.9927 32.064 11.6129 31.9939C12.3137 31.9147 13.1329 32.0862 14.4127 32.5496C16.8827 33.4439 20.5199 35.2527 25.8307 35.2527C31.1413 35.2526 34.7787 33.4438 37.2487 32.5496C38.5282 32.0863 39.3468 31.9148 40.0475 31.9939Z" stroke="white" stroke-width="4"/>
<path d="M25.8301 28C27.2733 28 28.2569 28.4074 29.0488 29.0361C29.8965 29.7091 30.6298 30.719 31.3906 32.0957C32.1964 33.554 32.8054 34.9639 33.7285 36.7627C34.5907 38.4427 35.6207 40.2256 37.0186 41.8232C38.438 43.4455 40.2015 44.7398 41.8799 45.8457C43.6803 47.032 45.1509 47.8666 46.5957 48.8857C47.985 49.8657 48.8718 50.7101 49.3184 51.5342C49.6933 52.2262 49.8358 53.0405 49.3516 54.291C48.6559 56.0873 46.9595 57.2797 44.3008 58.3789C42.9874 58.9219 41.6035 59.3806 40.1172 59.9062C38.6752 60.4163 37.158 60.9825 35.7822 61.7031C34.4406 62.4059 33.4129 63.0856 32.5527 63.6924C31.6444 64.3332 31.0877 64.7684 30.4424 65.1758C29.3811 65.8457 28.2746 66.3105 25.8301 66.3105C24.5544 66.3105 23.7835 66.1816 23.2656 66.0156C22.7812 65.8604 22.4261 65.6445 22.0088 65.3086C21.1504 64.6176 19.7954 63.1219 17.0869 61.7031C15.6888 60.9709 14.0758 60.4008 12.5195 59.8906C10.9071 59.3621 9.37736 58.9045 7.89844 58.3535C4.85064 57.2181 2.97205 56.0043 2.30859 54.291C1.82436 53.0405 1.96687 52.2262 2.3418 51.5342C2.78837 50.71 3.67606 49.8658 5.06543 48.8857C6.51008 47.8667 7.98003 47.0319 9.78027 45.8457C11.4587 44.7398 13.2231 43.4455 14.6426 41.8232C16.0403 40.2257 17.0705 38.4426 17.9326 36.7627C18.8557 34.964 19.4647 33.5539 20.2705 32.0957C21.0312 30.7191 21.7647 29.709 22.6123 29.0361C23.4041 28.4076 24.3872 28 25.8301 28Z" stroke="white" stroke-width="4"/>
</svg>
